# xmcd
#
# Track frame offsets: 
#        150
#        36206
#        63366
#        87977
#        106746
#        120904
#        149130
#        171123
#
# Disc length: 2899 seconds
#
# Revision: 0
# Processed by: cddbd v1.5.2PL0 Copyright (c) Steve Scherf et al.
# Submitted via: ExactAudioCopy v0.99pb5
#
DISCID=670b5108
DTITLE=La Revolucion de Emiliano Zapata - Hoy
DYEAR=1972
DGENRE=Psychedelic Rock
TTITLE0=In The Middle of The Rain
TTITLE1=Now Listen This Song
TTITLE2=Petra Y Sus Camaradas
TTITLE3=Otra Ves
TTITLE4=Preludio A Le Felicidad
TTITLE5=Fatman
TTITLE6=So Long Ago
TTITLE7=I Dig It
EXTD=
EXTT0=
EXTT1=
EXTT2=
EXTT3=
EXTT4=
EXTT5=
EXTT6=
EXTT7=
PLAYORDER=
